<svg id="Layer_35" enable-background="new 0 0 64 64" height="512" viewBox="0 0 64 64" width="512" xmlns="http://www.w3.org/2000/svg"><path d="m62 36v22c0 2.21-1.79 4-4 4h-30c-2.21 0-4-1.79-4-4v-22z" fill="#e6e9ed"/><path d="m57 58h-28c-.552 0-1-.448-1-1v-16c0-.552.448-1 1-1h28c.552 0 1 .448 1 1v16c0 .552-.448 1-1 1z" fill="#fcd770"/><path d="m62 32v4h-38v-4h10c2.21 0 4-1.79 4-4h6v3c0 .55.45 1 1 1h2c.55 0 1-.45 1-1v-3h4v3c0 .55.45 1 1 1h2c.55 0 1-.45 1-1v-3h2c2.21 0 4 1.79 4 4z" fill="#ff826e"/><path d="m34 32h-10-4v4l-10-4h-4c-2.21 0-4-1.79-4-4v-22c0-2.21 1.79-4 4-4h28c2.21 0 4 1.79 4 4v22c0 2.21-1.79 4-4 4z" fill="#ffeaa7"/><path d="m17 17c0 1.66 1.34 3 3 3s3-1.34 3-3c0-.17-.02-.33-.05-.5l.01-.05c4.08 1.26 7.04 5.06 7.04 9.55v2h-5-10-5v-2c0-2.76 1.12-5.26 2.93-7.07l4.11-2.48.01.05c-.03.17-.05.33-.05.5z" fill="#b4dd7f"/><path d="m23 17c0 1.66-1.34 3-3 3s-3-1.34-3-3c0-.17.02-.33.05-.5l-.01-.05c.93-.29 1.93-.45 2.96-.45s2.03.16 2.96.45l-.01.05c.03.17.05.33.05.5z" fill="#f0d0b4"/><circle cx="20" cy="11" fill="#f0d0b4" r="5"/><path d="m56 28v3c0 .55-.45 1-1 1h-2c-.55 0-1-.45-1-1v-3-3c0-.55.45-1 1-1h2c.55 0 1 .45 1 1z" fill="#aab2bd"/><path d="m48 28v3c0 .55-.45 1-1 1h-2c-.55 0-1-.45-1-1v-3-3c0-.55.45-1 1-1h2c.55 0 1 .45 1 1z" fill="#aab2bd"/><path d="m23.754 15.674c1.367-1.101 2.246-2.786 2.246-4.674 0-3.309-2.691-6-6-6s-6 2.691-6 6c0 1.888.879 3.573 2.246 4.674-4.219 1.539-7.246 5.58-7.246 10.326v3h22v-3c0-4.746-3.027-8.787-7.246-10.326zm-7.754-4.674c0-2.206 1.794-4 4-4s4 1.794 4 4-1.794 4-4 4-4-1.794-4-4zm5.977 6.226c-.114.995-.952 1.774-1.977 1.774s-1.863-.779-1.977-1.774c.637-.144 1.297-.226 1.977-.226s1.34.082 1.977.226zm7.023 9.774h-3v-4h-2v4h-8v-4h-2v4h-3v-1c0-3.568 2.092-6.649 5.11-8.103.409 1.773 1.993 3.103 3.89 3.103s3.481-1.33 3.89-3.103c3.018 1.455 5.11 4.535 5.11 8.103z"/><path d="m58 27h-1v-2c0-1.103-.897-2-2-2h-2c-1.103 0-2 .897-2 2v2h-2v-2c0-1.103-.897-2-2-2h-2c-1.103 0-2 .897-2 2v2h-4v-21c0-2.757-2.243-5-5-5h-28c-2.757 0-5 2.243-5 5v22c0 2.757 2.243 5 5 5h3.808l11.192 4.477v-4.477h2v25c0 2.757 2.243 5 5 5h30c2.757 0 5-2.243 5-5v-26c0-2.757-2.243-5-5-5zm-5-2h2l.001 6h-2.001zm-8 0h2l.001 6h-2.001zm-26 6v3.523l-8.808-3.523h-4.192c-1.654 0-3-1.346-3-3v-22c0-1.654 1.346-3 3-3h28c1.654 0 3 1.346 3 3v22c0 1.654-1.346 3-3 3zm15 2c2.414 0 4.434-1.721 4.899-4h4.101v2c0 1.103.897 2 2 2h2c1.103 0 2-.897 2-2v-2h2v2c0 1.103.897 2 2 2h2c1.103 0 2-.897 2-2v-2h1c1.654 0 3 1.346 3 3v3h-36v-2zm24 28h-30c-1.654 0-3-1.346-3-3v-21h36v21c0 1.654-1.346 3-3 3z"/><path d="m57 39h-28c-1.103 0-2 .897-2 2v16c0 1.103.897 2 2 2h28c1.103 0 2-.897 2-2v-16c0-1.103-.897-2-2-2zm0 6h-4v-4h4zm-22 2h4v4h-4zm-2 4h-4v-4h4zm12-6h-4v-4h4zm2-4h4v4h-4zm-2 6v4h-4v-4zm-6-2h-4v-4h4zm0 8v4h-4v-4zm2 0h4v4h-4zm6 0h4v4h-4zm0-2v-4h4v4zm6-4h4.001v4h-4.001zm-20-6v4h-4v-4zm-4 12h4v4h-4zm24 4v-4h4.001v4z"/><path d="m5 5h2v2h-2z"/><path d="m5 9h2v2h-2z"/><path d="m5 13h2v2h-2z"/><path d="m33 27h2v2h-2z"/><path d="m33 23h2v2h-2z"/><path d="m33 19h2v2h-2z"/></svg>