<svg height="496pt" viewBox="0 0 496 496" width="496pt" xmlns="http://www.w3.org/2000/svg"><path d="m488 248c0 132.546875-107.453125 240-240 240s-240-107.453125-240-240 107.453125-240 240-240 240 107.453125 240 240zm0 0" fill="#85d3c1"/><path d="m80 88v32h-32v-32zm0 0" fill="#ff958a"/><path d="m48 88v32h-24c-8.800781 0-16-7.199219-16-16 0-4.398438 1.761719-8.398438 4.71875-11.28125 2.882812-2.957031 6.882812-4.71875 11.28125-4.71875zm0 0" fill="#f9d48a"/><path d="m212.078125 88h11.921875l24 16-24 16h-144v-32zm0 0" fill="#f9d48a"/><path d="m112 8h272v152l.238281.960938c-13.917969 3.4375-24.238281 16.078124-24.238281 31.039062v16c0 11.839844 6.398438 22.160156 16 27.679688v20.320312l-38.558594 11.039062c-10.320312 2.960938-17.441406 12.320313-17.441406 23.039063 0-10.71875-7.121094-20.078125-17.441406-23.039063l-38.558594-11.039062v-20.320312c9.601562-5.519532 16-15.839844 16-27.679688v-16c0-2.640625-.320312-5.28125-.960938-7.761719l.960938-.238281c39.761719 0 72-32.238281 72-72s-32.238281-72-72-72c-31.359375 0-58 20-67.921875 48h-100.078125zm0 0" fill="#f5f7fa"/><path d="m193.441406 267.039062c-10.320312 2.960938-17.441406 12.320313-17.441406 23.039063 0-10.71875-7.121094-20.078125-17.441406-23.039063l-38.558594-11.039062v-20.320312c9.601562-5.519532 16-15.839844 16-27.679688v-16c0-8.800781-3.601562-16.800781-9.359375-22.640625-4.082031-4-9.199219-6.960937-14.878906-8.398437l.238281-.960938v-40h96.398438c1.921874 17.679688 10.320312 33.359375 22.722656 44.878906-9.121094 5.601563-15.121094 15.679688-15.121094 27.121094v16c0 11.839844 6.398438 22.160156 16 27.679688v20.320312zm0 0" fill="#f5f7fa"/><path d="m280 112h72c0 39.761719-32.238281 72-72 72zm0 0" fill="#f9d48a"/><path d="m280 112v72l-.960938.238281c-1.4375-5.757812-4.398437-10.878906-8.398437-14.878906-5.839844-5.757813-13.839844-9.359375-22.640625-9.359375-6.160156 0-12 1.761719-16.878906 4.878906-12.402344-11.519531-20.800782-27.199218-22.722656-44.878906h15.601562l24-16-24-16h-11.921875c9.921875-28 36.5625-48 67.921875-48zm0 0" fill="#ff958a"/><path d="m432 352v32h-368v-32zm0 0" fill="#ff958a"/><path d="m432 400 .960938.878906c-44 53.199219-110.480469 87.121094-184.960938 87.121094s-140.960938-33.921875-184.960938-87.121094l.960938-.878906v-16h368zm0 0" fill="#f5f7fa"/><path d="m288 320h-112v-29.921875c0-10.71875 7.121094-20.078125 17.441406-23.039063l38.558594-11.039062 16 16 16-16 38.558594 11.039062c10.320312 2.960938 17.441406 12.320313 17.441406 23.039063v29.921875zm0 0" fill="#f9d48a"/><path d="m144 320h-112v-29.921875c0-10.71875 7.121094-20.078125 17.441406-23.039063l38.558594-11.039062 16 16 16-16 38.558594 11.039062c10.320312 2.960938 17.441406 12.320313 17.441406 23.039063v29.921875zm0 0" fill="#f9d48a"/><path d="m432 320h-112v-29.921875c0-10.71875 7.121094-20.078125 17.441406-23.039063l38.558594-11.039062 16 16 16-16 38.558594 11.039062c10.320312 2.960938 17.441406 12.320313 17.441406 23.039063v29.921875zm0 0" fill="#f9d48a"/><g fill="#f5f7fa"><path d="m464 320h12.960938c-3.441407 11.121094-7.679688 21.839844-12.722657 32.160156l-.238281-.160156h-432l-.238281.160156c-4.960938-10.320312-9.28125-21.039062-12.722657-32.160156zm0 0"/><path d="m408 235.679688v20.320312l-16 16-16-16v-20.320312c4.71875 2.71875 10.160156 4.320312 16 4.320312s11.28125-1.601562 16-4.320312zm0 0"/><path d="m408 235.679688c-4.71875 2.71875-10.160156 4.320312-16 4.320312s-11.28125-1.601562-16-4.320312c-9.601562-5.519532-16-15.839844-16-27.679688v-16c0-14.960938 10.320312-27.601562 24.238281-31.039062 2.480469-.640626 5.121094-.960938 7.761719-.960938 8.800781 0 16.800781 3.601562 22.640625 9.359375 5.757813 5.839844 9.359375 13.839844 9.359375 22.640625v16c0 11.839844-6.398438 22.160156-16 27.679688zm0 0"/><path d="m264 235.679688v20.320312l-16 16-16-16v-20.320312c4.71875 2.71875 10.160156 4.320312 16 4.320312s11.28125-1.601562 16-4.320312zm0 0"/><path d="m264 235.679688c-4.71875 2.71875-10.160156 4.320312-16 4.320312s-11.28125-1.601562-16-4.320312c-9.601562-5.519532-16-15.839844-16-27.679688v-16c0-11.441406 6-21.519531 15.121094-27.121094 4.878906-3.117187 10.71875-4.878906 16.878906-4.878906 8.800781 0 16.800781 3.601562 22.640625 9.359375 4 4 6.960937 9.121094 8.398437 14.878906.640626 2.480469.960938 5.121094.960938 7.761719v16c0 11.839844-6.398438 22.160156-16 27.679688zm0 0"/><path d="m120 235.679688v20.320312l-16 16-16-16v-20.320312c4.71875 2.71875 10.160156 4.320312 16 4.320312s11.28125-1.601562 16-4.320312zm0 0"/><path d="m120 235.679688c-4.71875 2.71875-10.160156 4.320312-16 4.320312s-11.28125-1.601562-16-4.320312c-9.601562-5.519532-16-15.839844-16-27.679688v-16c0-17.679688 14.320312-32 32-32 2.640625 0 5.28125.320312 7.761719.960938 5.679687 1.4375 10.796875 4.398437 14.878906 8.398437 5.757813 5.839844 9.359375 13.839844 9.359375 22.640625v16c0 11.839844-6.398438 22.160156-16 27.679688zm0 0"/></g><path d="m392 46.183594v-46.183594h-288v46.183594c-13.886719 9.921875-26.742188 21.265625-38.320312 33.816406h-41.679688c-13.230469 0-24 10.769531-24 24s10.769531 24 24 24h7.023438c-20.28125 36.617188-31.023438 77.777344-31.023438 120 0 136.753906 111.257812 248 248 248s248-111.246094 248-248c0-80.167969-38.839844-155.238281-104-201.816406zm88 201.816406c0 20.863281-2.816406 41.070312-8 60.3125v-18.207031c0-14.210938-9.542969-26.867188-23.207031-30.777344l-32.792969-9.359375v-10.167969c9.65625-7.3125 16-18.785156 16-31.792969v-16c0-22.054687-17.945312-40-40-40v-85.878906c55.359375 43.886719 88 110.75 88 181.871094zm-40 112h11.089844c-3.433594 6.199219-7.121094 12.238281-11.089844 18.078125zm-403.121094-16c-2.390625-5.238281-4.648437-10.558594-6.65625-16h435.554688c-2.007813 5.441406-4.265625 10.761719-6.65625 16zm19.121094 34.078125c-3.96875-5.839844-7.65625-11.878906-11.089844-18.078125h11.089844zm0-266.078125v-16h16v16zm32-16h133.574219l12 8-12 8h-133.574219zm200 24h55.449219c-3.625 28.894531-26.554688 51.816406-55.449219 55.449219zm0-16v-55.449219c28.894531 3.625 51.816406 26.554688 55.449219 55.449219zm-16 56.207031c-6.703125-5.078125-14.960938-8.207031-24-8.207031-5.425781 0-10.585938 1.105469-15.304688 3.070312-7.039062-7.726562-12.015624-17.015624-14.605468-27.070312h8.335937l36-24-36-24h-1.738281c9.96875-17.191406 27.457031-28.855469 47.3125-31.367188zm120 7.792969c13.230469 0 24 10.769531 24 24v16c0 13.230469-10.769531 24-24 24s-24-10.769531-24-24v-16c0-13.230469 10.769531-24 24-24zm0 80c2.734375 0 5.414062-.28125 8-.808594v5.496094l-8 8-8-8v-5.496094c2.585938.527344 5.265625.808594 8 .808594zm-18.328125 16.984375 18.328125 18.328125 18.328125-18.328125 34.0625 9.734375c6.832031 1.953125 11.609375 8.273438 11.609375 15.386719v21.894531h-16v-16h-16v16h-64v-16h-16v16h-16v-21.894531c0-7.113281 4.777344-13.433594 11.601562-15.386719zm-61.671875 47.015625h-16v-16h-16v16h-64v-16h-16v16h-16v-21.894531c0-7.113281 4.777344-13.433594 11.601562-15.386719l34.070313-9.734375 18.328125 18.328125 18.328125-18.328125 34.0625 9.734375c6.832031 1.953125 11.609375 8.273438 11.609375 15.386719zm-56-59.3125-8 8-8-8v-5.496094c2.585938.527344 5.265625.808594 8 .808594s5.414062-.28125 8-.808594zm-8-20.6875c-13.230469 0-24-10.769531-24-24v-16c0-13.230469 10.769531-24 24-24s24 10.769531 24 24v16c0 13.230469-10.769531 24-24 24zm-46.390625-104c1.125 5.527344 2.878906 10.871094 5.125 16h-54.734375v16h64v-.054688c1.078125 1.429688 2.230469 2.816407 3.40625 4.175782-3.34375 3.421875-6.070312 7.4375-8.015625 11.878906h-59.390625v16h56v16c0 13.015625 6.34375 24.488281 16 31.792969v10.167969l-32.792969 9.359374c-6.0625 1.734376-11.238281 5.253907-15.207031 9.808594-3.96875-4.554687-9.144531-8.074218-15.207031-9.808594l-32.792969-9.351562v-10.167969c9.65625-7.3125 16-18.785156 16-31.792969v-16c0-16.359374-9.894531-30.414062-24-36.609374v-27.398438zm-73.609375 64v16c0 13.230469-10.769531 24-24 24s-24-10.769531-24-24v-16c0-13.230469 10.769531-24 24-24s24 10.769531 24 24zm-24 56c2.734375 0 5.414062-.28125 8-.808594v5.496094l-8 8-8-8v-5.496094c2.585938.527344 5.265625.808594 8 .808594zm-18.328125 16.984375 18.328125 18.328125 18.328125-18.328125 34.0625 9.734375c6.832031 1.953125 11.609375 8.273438 11.609375 15.386719v21.894531h-16v-16h-16v16h-64v-16h-16v16h-16v-21.894531c0-7.113281 4.777344-13.433594 11.601562-15.386719zm290.328125-248.984375v139.390625c-14.105469 6.195313-24 20.25-24 36.609375v16c0 13.015625 6.34375 24.488281 16 31.792969v10.167969l-32.792969 9.359374c-6.0625 1.734376-11.238281 5.253907-15.207031 9.808594-3.96875-4.554687-9.144531-8.074218-15.207031-9.808594l-32.792969-9.351562v-10.167969c9.65625-7.3125 16-18.785156 16-31.792969v-16c0-.136718-.039062-.265624-.039062-.398437 40.390624-4.015625 72.039062-38.183594 72.039062-79.609375 0-44.113281-35.886719-80-80-80-31.921875 0-60.6875 19.070312-73.320312 48h-86.679688v-64zm-272 50.144531v13.855469h-15.863281c5.085937-4.839844 10.359375-9.488281 15.863281-13.855469zm-88 37.855469c0-4.40625 3.59375-8 8-8h16v16h-16c-4.40625 0-8-3.59375-8-8zm33.535156 24h54.464844v24c-22.054688 0-40 17.945312-40 40v16c0 13.015625 6.34375 24.488281 16 31.792969v10.167969l-32.792969 9.359374c-13.664062 3.910157-23.207031 16.566407-23.207031 30.785157v18.207031c-5.183594-19.242188-8-39.449219-8-60.3125 0-42.511719 11.648438-83.871094 33.535156-120zm198.464844 352c-70.335938 0-133.414062-31.503906-176-81.105469v-6.894531h288v-16h-288v-16h352v16h-48v16h48v6.894531c-42.585938 49.601563-105.664062 81.105469-176 81.105469zm0 0" fill="#232323"/><path d="m136 32h16v16h-16zm0 0" fill="#232323"/><path d="m168 32h16v16h-16zm0 0" fill="#232323"/><path d="m200 32h16v16h-16zm0 0" fill="#232323"/></svg>